# xmcd CD database file
#
# Track frame offsets:
#	150
#	16215
#	29897
#	42595
#	56242
#	73567
#	85927
#	101772
#	120395
#	134830
#	150742
#	165915
#	179155
#	193505
#	210617
#
# Disc length: 2981 seconds
#
# Revision: 2
# Processed by: cddbd v1.5.1PL2 Copyright (c) Steve Scherf et al.
# Submitted via: CDex 1.51
#
DISCID=dc0ba30f
DTITLE=Peter Green with Nigel Watson And Splinter Group - Hot Foot Powder
DYEAR=2000
DGENRE=Blues
TTITLE0=I'm A Steady Rollin' Man
TTITLE1=From Four Until Late
TTITLE2=Dead Shrimp Blues
TTITLE3=Little Queen Of Spades
TTITLE4=They're Red Hot
TTITLE5=Preachin' Blues
TTITLE6=Hell Hound On My Trail
TTITLE7=Travelling Riverside Blues
TTITLE8=Malted Milk
TTITLE9=Milkcow's Calf Blues
TTITLE10=Drunken Hearted Man
TTITLE11=Cross Road Blues
TTITLE12=Come On In My Kitchen
TTITLE13=Terraplane Blues (Japan Only Bonus Track)
TTITLE14=Honeymoon Blues (Japan Only Bonus Track)
EXTD=YEAR: 2000
EXTT0=
EXTT1=
EXTT2=
EXTT3=
EXTT4=
EXTT5=
EXTT6=
EXTT7=
EXTT8=
EXTT9=
EXTT10=
EXTT11=
EXTT12=
EXTT13=
EXTT14=
PLAYORDER=
